<svg xmlns="http://www.w3.org/2000/svg" width="520" height="192" viewBox="0 0 520 192" role="img" aria-labelledby="title desc">
<title id="title">Listed on Cat Groomers Canada</title>
<desc id="desc">Official Cat Groomers Canada featured listing badge.</desc>
<rect width="520" height="192" rx="16" fill="#f7fbf8"/>
<rect x="8" y="8" width="504" height="176" rx="12" fill="#fff" stroke="#0b5345" stroke-width="4"/>
<g transform="translate(34 38)">
  <circle cx="56" cy="56" r="52" fill="#e7f4ef" stroke="#0b5345" stroke-width="5"/>
  <path d="M43 78c-12-6-20-17-20-31 0-19 15-33 33-33 8 0 14 2 20 6l9-11 3 23c4 5 7 12 7 19 0 24-21 43-48 43-10 0-19-3-26-7 9 0 16-3 22-9Z" fill="#0b5345"/>
  <path d="M40 31 29 13l22 8 15-12-2 22" fill="#0b5345"/>
  <circle cx="57" cy="45" r="3" fill="#f7fbf8"/>
  <path d="M66 58c-5 5-11 5-17 1" fill="none" stroke="#f7fbf8" stroke-width="3" stroke-linecap="round"/>
  <path d="M18 86c0-22 11-37 30-45" fill="none" stroke="#c9993a" stroke-width="7" stroke-linecap="round"/>
  <path d="M15 91h21M19 80h18M23 69h16M29 58h13" stroke="#c9993a" stroke-width="3" stroke-linecap="round"/>
  <path d="m88 34 6-11 5 11 12-3-7 9 9 7-12 2 2 12-10-7-9 7 2-12-12-2 9-7-7-9Z" fill="#ef806f"/>
</g>
<text x="152" y="72" fill="#102a21" font-family="Arial, Helvetica, sans-serif" font-size="22" font-weight="800" letter-spacing="0">LISTED ON</text>
<text x="152" y="115" fill="#0b5345" font-family="Georgia, 'Times New Roman', serif" font-size="42" font-weight="700">Cat Groomers</text>
<text x="155" y="148" fill="#c9993a" font-family="Arial, Helvetica, sans-serif" font-size="24" font-weight="900" letter-spacing="0">CANADA</text>
<path d="M152 126h94M374 126h60" stroke="#ef806f" stroke-width="3" stroke-linecap="round"/>
</svg>